<?xml version="1.0" encoding="UTF-8"?>
<svg id="BC_ID" data-name="BC ID" xmlns="http://www.w3.org/2000/svg" width="332" height="87.61" viewBox="0 0 332 87.61">
  <defs>
    <style>
      .cls-1 {
        fill: #e3a82b;
      }

      .cls-1, .cls-2, .cls-3 {
        stroke-width: 0px;
      }

      .cls-2 {
        fill: #234075;
      }

      .cls-3 {
        fill: #fff;
      }
    </style>
  </defs>
  <path class="cls-3" d="M18.48,73.3c20.99,0,50.01,11.82,71.08,11.82,15.03,0,29.7-4.01,38.05-9.92.58-3.47.89-7.03.89-10.66C128.5,29.26,99.91.67,64.64.67S.78,29.26.78,64.53c0,3.59.3,7.11.87,10.54,2.3-.43,10.13-1.78,16.84-1.78Z"/>
  <rect class="cls-1" x="162.04" y="85.81" width="147.72" height="1.79"/>
  <path class="cls-2" d="M165.83,21.81c0-3-.21-3.79-2.24-3.96l-1.41-.1c-.23-.18-.16-.99.04-1.01,2.43-.22,5.49-.32,9.67-.32,2.83,0,5.53.2,7.56,1.13,1.93.85,3.42,2.47,3.42,5.06,0,2.92-1.89,4.42-4.59,5.55,0,.4.36.53.85.61,2.43.41,6.03,2.43,6.03,6.77,0,4.7-3.87,7.86-11.96,7.86-1.3,0-3.51-.12-5.4-.12s-3.51.08-5.17.12c-.27-.12-.36-.77-.09-1.01l.81-.12c2.38-.36,2.47-.81,2.47-5.06v-15.4ZM169.52,27.2c0,1.14.04,1.22,2.34,1.14,4.59-.16,7.06-1.38,7.06-5.19s-3.28-5.47-6.7-5.47c-.99,0-1.67.08-2.07.24-.45.12-.63.32-.63,1.05v8.23ZM169.52,36.6c0,1.46.09,3.52.94,4.42.86.93,2.2,1.13,3.55,1.13,4,0,7.06-1.62,7.06-5.67,0-3.2-1.8-6.93-8.95-6.93-2.43,0-2.61.24-2.61,1.05v6Z"/>
  <path class="cls-2" d="M216.44,25.8c0-3.67-.08-4.26-2.34-4.43l-.96-.07c-.23-.14-.15-.76.08-.87,1.92.07,3.23.1,4.84.1s2.84-.04,4.76-.1c.23.1.31.73.08.87l-.96.07c-2.27.17-2.34.76-2.34,4.43v12.32c0,3.67.08,4.15,2.34,4.4l.96.1c.23.14.15.76-.08.87-1.92-.07-3.23-.1-4.76-.1-1.61,0-2.92.04-4.84.1-.23-.1-.31-.66-.08-.87l.96-.1c2.27-.24,2.34-.73,2.34-4.4v-12.32Z"/>
  <path class="cls-2" d="M237.75,38.19c0,3.63.07,4.15,2.16,4.33l1.15.1c.22.14.14.76-.07.87-2.05-.07-3.28-.1-4.72-.1s-2.7.04-5,.1c-.22-.1-.29-.69,0-.87l1.3-.1c2.05-.17,2.23-.69,2.23-4.33v-15.47c0-1.07,0-1.11-1.08-1.11h-1.98c-1.55,0-3.53.07-4.43.86-.86.76-1.22,1.52-1.62,2.39-.29.21-.79.03-.94-.24.57-1.56,1.12-3.77,1.37-5.16.11-.07.58-.1.68,0,.22,1.11,1.4,1.07,3.06,1.07h14.58c1.94,0,2.27-.07,2.81-.97.18-.07.58-.03.65.1-.4,1.42-.65,4.22-.54,5.26-.14.28-.76.28-.94.07-.11-.87-.36-2.15-.9-2.53-.83-.59-2.2-.86-4.18-.86h-2.56c-1.08,0-1.04.03-1.04,1.18v15.4Z"/>
  <path class="cls-2" d="M253.18,25.8c0-3.67-.08-4.26-2.34-4.43l-.96-.07c-.23-.14-.15-.76.08-.87,1.92.07,3.23.1,4.84.1s2.84-.04,4.76-.1c.23.1.31.73.08.87l-.96.07c-2.27.17-2.34.76-2.34,4.43v12.32c0,3.67.08,4.15,2.34,4.4l.96.1c.23.14.15.76-.08.87-1.92-.07-3.23-.1-4.76-.1-1.61,0-2.92.04-4.84.1-.23-.1-.31-.66-.08-.87l.96-.1c2.27-.24,2.34-.73,2.34-4.4v-12.32Z"/>
  <path class="cls-2" d="M270.39,43.84c-3.43,0-5.6-.9-6.37-1.28-.49-.76-1.02-3.22-1.1-4.85.2-.24.82-.31.98-.1.61,1.77,2.29,5.16,7.03,5.16,3.43,0,5.11-1.9,5.11-3.98,0-1.52-.37-3.22-3.35-4.85l-3.88-2.15c-2.04-1.14-4.41-3.11-4.41-5.95,0-3.29,3.02-5.95,8.33-5.95,1.27,0,2.74.21,3.8.45.53.14,1.1.21,1.43.21.37.83.74,2.77.74,4.22-.16.21-.82.31-1.02.1-.53-1.66-1.63-3.91-5.55-3.91s-4.86,2.25-4.86,3.84c0,2.01,1.96,3.46,3.47,4.26l3.27,1.73c2.57,1.35,5.11,3.36,5.11,6.65,0,3.81-3.39,6.4-8.7,6.4Z"/>
  <path class="cls-2" d="M290.95,32.2c-1.79,0-1.86.07-1.86,1.11v4.88c0,3.63.19,4.12,2.27,4.33l1.08.1c.22.14.15.76-.07.87-2.01-.07-3.28-.1-4.73-.1-1.6,0-2.87.07-4.32.1-.22-.1-.3-.66-.07-.87l.63-.1c2.09-.35,2.16-.69,2.16-4.33v-12.46c0-3.63-.26-4.22-2.2-4.36l-.97-.07c-.22-.14-.15-.76.07-.87,1.82.04,3.09.1,4.69.1,1.45,0,2.72-.04,4.32-.1.22.1.3.73.08.87l-.71.07c-2.16.21-2.23.73-2.23,4.36v3.98c0,1.07.07,1.11,1.86,1.11h10.65c1.79,0,1.86-.04,1.86-1.11v-3.98c0-3.63-.07-4.15-2.27-4.36l-.71-.07c-.22-.14-.15-.76.07-.87,1.71.07,2.98.1,4.51.1s2.72-.04,4.39-.1c.22.1.3.73.07.87l-.78.07c-2.16.21-2.24.73-2.24,4.36v12.46c0,3.63.08,4.08,2.24,4.33l.89.1c.22.14.15.76-.07.87-1.79-.07-3.06-.1-4.51-.1-1.53,0-2.87.04-4.51.1-.22-.1-.3-.66-.07-.87l.71-.1c2.27-.35,2.27-.69,2.27-4.33v-4.88c0-1.04-.07-1.11-1.86-1.11h-10.65Z"/>
  <path class="cls-2" d="M144.52,51.09c3.06-2.38,6.96-3.55,11.32-3.55,2.26,0,5.45.46,7.42,1,.5.13.8.21,1.17.17.04.96.25,3.59.59,6.14-.21.29-.84.33-1.13.08-.63-2.84-2.52-6.1-8.6-6.1-6.42,0-11.87,4.05-11.87,12.7s5.58,13.62,12.46,13.62c5.41,0,7.8-3.51,8.76-5.98.29-.21.92-.13,1.09.17-.29,2.17-1.38,4.93-2.01,5.73-.5.08-1.01.25-1.47.42-.92.34-3.94.96-6.63.96-3.77,0-7.38-.75-10.44-2.8-3.36-2.3-5.96-6.1-5.96-11.49,0-4.64,2.1-8.61,5.28-11.08Z"/>
  <path class="cls-2" d="M167.45,64.61c0-6.92,5.45-12.22,12.94-12.22,8.39,0,12.61,5.78,12.61,11.87,0,6.99-5.6,12.08-12.61,12.08-8.07,0-12.94-5.5-12.94-11.73ZM189.37,65.34c0-5.71-2.65-11.87-9.59-11.87-3.78,0-8.69,2.46-8.69,10.04,0,5.12,2.62,11.77,9.78,11.77,4.36,0,8.5-3.12,8.5-9.93Z"/>
  <path class="cls-2" d="M234,61.63c0-2.15-.07-6.13-.7-7.16-.26-.42-.92-.66-1.83-.73l-.92-.07c-.22-.24-.15-.69.07-.83,1.39.07,2.75.1,4.18.1,1.54,0,2.53-.04,3.85-.1.29.17.26.62.07.83l-.88.07c-.92.07-1.61.38-1.83.83-.51,1.14-.51,5.12-.51,7.06v3.91c0,3.01-.51,6.2-2.57,8.27-1.58,1.63-4.29,2.53-7.01,2.53-2.53,0-5.06-.45-6.86-1.9-1.94-1.52-2.86-4.05-2.86-8.17v-8.17c0-3.6-.07-4.19-2.2-4.36l-.92-.07c-.22-.14-.15-.73.07-.83,1.84.07,3.08.1,4.55.1s2.71-.04,4.51-.1c.22.1.29.69.07.83l-.88.07c-2.13.17-2.2.76-2.2,4.36v7.48c0,5.57,1.83,9.24,7.45,9.24,5.32,0,7.34-3.95,7.34-9.21v-3.98Z"/>
  <path class="cls-2" d="M276.65,57.31c0-2.59-.16-3.25-1.99-3.39l-1.3-.13c-.15-.13-.23-.83.04-.85,2.19-.16,4.95-.28,8.72-.28,2.55,0,4.99.17,6.81.98,1.74.73,3.08,2.13,3.08,4.37,0,2.52-1.7,3.81-4.14,4.79,0,.35.32.45.77.52,2.19.35,5.43,2.1,5.43,5.84,0,4.05-3.49,6.78-10.79,6.78-1.18,0-3.16-.1-4.87-.1s-3.16.07-4.66.1c-.24-.1-.33-.66-.08-.87l.73-.11c2.15-.31,2.23-.7,2.23-4.37v-13.28ZM279.97,61.96c0,.98.04,1.05,2.11.98,4.14-.14,6.37-1.19,6.37-4.47s-2.96-4.72-6.04-4.72c-.89,0-1.5.07-1.86.21-.41.1-.57.28-.57.91v7.1ZM279.97,70.07c0,1.26.08,3.04.85,3.81.77.8,1.99.98,3.2.98,3.61,0,6.37-1.4,6.37-4.89,0-2.76-1.62-5.98-8.07-5.98-2.19,0-2.35.21-2.35.91v5.17Z"/>
  <path class="cls-2" d="M210.56,42.62l-.96-.08c-.19-.02-.37-.05-.53-.07-1.41-.25-1.97-1.5-2.63-2.66l-3.32-5.79c-.57-.96-1.19-2.26-2.5-2.45,3.4-.41,6.48-2.37,6.48-5.75,0-3.9-3.86-5.64-7.75-5.64-2.34,0-4.47.06-6.85.06-1.31,0-2.87-.06-4.19-.06-.73,0-.74.15-.74.56,0,.6.25.43,1.03.48,2.77.16,2.67.67,2.67,3.05v15.17c0,2.17.19,2.82-2.09,3.02,0,0-.35.04-.55.06l-.97.1c-.23.21-.15.76.08.86.51-.02,1.42-.05,1.42-.05,1.26-.04,2.52-.13,3.78-.13s2.48.1,3.73.13h0c.44.01.91.03,1.42.05.23-.1.31-.66.08-.86l-.97-.09c-.2-.02-.54-.05-.54-.05-2.3-.16-2.16-.8-2.16-3.03v-5.71c0-.33-.04-1.22.2-1.48.21-.22.57-.19.9-.19,3.12,0,3.08.3,4.55,2.89l4.02,7.23c.33.56.57,1.26,1.4,1.26h3.49c.44.01.9.03,1.41.05.23-.1.31-.66.08-.86ZM196.56,31.25c-.7,0-2.09.26-2.09-.67v-6.64c0-2.6.08-2.97,3.2-2.97,3.65,0,5.91,1.85,5.91,5.27,0,1.48-.53,2.86-1.89,3.78-1.56,1.08-3.24,1.22-5.13,1.22Z"/>
  <g>
    <path class="cls-2" d="M197.31,58.22c0-3.63-.08-4.19-2.47-4.36l-.95-.07c-.23-.14-.15-.76.08-.87,2.13.07,3.43.1,4.95.1s2.78-.03,4.68-.1c.23.1.3.73.08.86l-.91.07c-2.25.17-2.32.73-2.32,4.36v12.05c0,2.18.11,3.08.8,3.74.42.38,1.14.8,4.15.8,3.24,0,4.04-.14,4.65-.45.76-.42,1.75-1.66,2.51-3.43.23-.17.95-.03.95.21,0,.38-1.07,3.91-1.6,4.85-1.94-.07-5.56-.1-9.48-.1h-3.5c-1.6,0-2.82.03-4.95.1-.23-.1-.3-.66-.08-.87l1.14-.1c2.21-.21,2.28-.69,2.28-4.33v-12.46Z"/>
    <path class="cls-2" d="M299.31,58.29c0-3.67-.07-4.26-2.28-4.43l-.94-.07c-.22-.14-.15-.76.08-.87,1.87.07,3.14.1,4.71.1s2.77-.03,4.64-.1c.22.1.3.73.07.86l-.94.07c-2.21.17-2.28.76-2.28,4.43v12.32c0,3.67.07,4.15,2.28,4.4l.94.1c.22.14.15.76-.07.87-1.87-.07-3.14-.1-4.64-.1-1.57,0-2.84.03-4.71.1-.23-.1-.3-.66-.08-.87l.94-.1c2.21-.24,2.28-.73,2.28-4.4v-12.32Z"/>
    <path class="cls-2" d="M269.44,75c-.19-.02-.55-.05-.55-.05-.39-.04-.75-.1-1.03-.4-.49-.52-.44-1.98-.44-2.57v-15.17c0-.66-.16-2.09.32-2.61.24-.27.75-.32,1.2-.34h0c.27-.02.28-.02.52-.03l.96-.07c.23-.14.15-.76-.08-.87-.51.02-.98.01-1.42.02h0s-4.08,0-4.08,0c-.44,0-.85,0-1.09.48l-8.32,17.33-7.35-16.75c-.24-.59-.28-1.07-1.05-1.07h-4.25c-.44-.01-.93,0-1.45-.03-.23.1-.31.73-.08.87l.96.07c.2.02.56.04.56.04,1.59.1,1.69.46,1.55,2.14l-1.25,16.27c-.11,1.63-.2,2.5-1.91,2.66,0,0-.36.05-.56.07l-.96.1c-.23.21-.15.76.08.86.51-.02,1.41-.04,1.41-.04.87-.04,1.75-.12,2.63-.12.95,0,1.91.09,2.86.13h0c.44.02.91.03,1.42.05.23-.1.31-.66.08-.86l-.96-.1c-.25-.02-.54-.05-.54-.05-2.47-.17-2.41-1.91-2.26-4.04l1.17-15.13h.28l7.96,18.62c.08.26.2.7.61.7.36,0,.49-.4.61-.66l8.97-19.1h.28v16.64c0,.66.08,2.02-.61,2.53-.36.27-1.53.43-1.53.43-.16.03-.33.05-.52.07l-.96.1c-.23.21-.15.76.08.87.51-.02,1.4-.05,1.4-.05,1.3-.04,2.63-.13,3.95-.13.95,0,2.82.09,2.82.09.44.01.95.06,1.46.08.23-.1.31-.66.08-.86l-.96-.1Z"/>
    <path class="cls-2" d="M331.86,75.09l-.13-.1c-.19-.02-.36-.04-.52-.07-1.5-.33-2.08-2.14-2.63-3.42l-7.7-18.23c-.08-.22-.23-.69-.53-.69-.42,0-.53.51-.65.8l-7.36,18.2c-.27.69-.95,2.36-1.45,2.87-.38.39-.87.46-1.4.52,0,0-.42.04-.61.06l-.9.09c-.23.21-.15.76.08.87.51-.02,1.42-.05,1.42-.05,1.01-.01,2.01-.14,3.02-.14.85,0,1.7.09,2.54.13,0,0,.91.03,1.42.05.23-.1.31-.66.08-.87l-.96-.1c-.19-.02-.52-.05-.52-.05-.89-.1-1.99-.26-1.99-1.23,0-.65.31-1.42.53-2l1.14-2.72c.57-1.31.34-1.45,1.87-1.45h5.19c1.83,0,1.56,0,2.36,1.85l1.22,2.76c.19.47.53,1.27.53,1.78,0,.91-1,.97-1.93,1.05,0,0-.31.03-.58.05l-.92.07c-.23.21-.15.76.08.87.51-.02,1.42-.06,1.42-.06,1.08-.04,2.18-.12,3.22-.12,1.34,0,2.67.09,4.01.13h0c.44.01.07.03.57.05.23-.1.31-.66.08-.87ZM321.77,66.53h-4.49c-.16,0-1.41.15-1.41-.22,0-.11.08-.33.12-.44l2.7-6.68c.08-.18.35-1.1.66-1.1.23,0,.55.95.63,1.1l2.66,6.24c0,.07.27.66.27.81,0,.4-.9.29-1.13.29Z"/>
  </g>
  <g>
    <polygon class="cls-1" points="105.94 49.76 108.47 50.8 114.07 46.9 105.94 49.76"/>
    <path class="cls-1" d="M11.85,45.4l-6.64-2.34.33-.81,7.47,2.49.03-.02.99-.56.39-.25-8.15-3.47.34-.85,18.19,7.36.6-.25-18.04-8.79.4-.83,19.12,8.9.26-.13-18.54-10.52.38-.79,26.77,14.57c.22-.41.68-1.14.91-1.54-10.18-9.57-20-16.76-20-16.76,0,0,10.1,6.76,22.57,13.05.41-.51.75-.93,1.19-1.41l-22.84-20.11.61-.63,18.43,15.71-17.08-17.1.64-.66,19.17,18.53-17.85-19.81.68-.62,16.5,17.66-15.06-18.97.65-.59,19.3,23.49c.5-.43.91-.75,1.44-1.15-5.84-12.63-12.21-22.91-12.21-22.91,0,0,6.79,9.99,15.94,20.45.56-.31,1.13-.62,1.71-.9l-.1-.06-13.53-26.99.8-.35,11.21,21.47-9.43-22.26.84-.37,10.84,24.36-9.13-25.05.86-.31,8.68,22.56-6.85-23.23.82-.3,9.02,28.81-.02.08h.02c.6-.21,1.21-.39,1.82-.55-.69-13.84-2.73-25.68-2.73-25.68,0,0,2.53,11.73,7.08,24.82.63-.08,1.27-.14,1.91-.19l-.02-.03h.08l-.05-.07-2.43-30.09.88-.03,2.35,24.11-.4-24.17.92-.03.92,26.65.92-26.65.92.03-.4,24.17,2.35-24.11.88.03-2.43,30.09-.05.07h.01,0s.04,0,.04,0c.63.04,1.25.1,1.87.18,4.54-13.07,7.07-24.79,7.07-24.79,0,0-2.04,11.8-2.73,25.62.62.16,1.23.34,1.84.54l8.99-28.71.82.3-6.86,23.23,8.68-22.56.86.32-9.13,25.05,10.84-24.36.84.37-9.43,22.26,11.21-21.47.8.35-13.48,26.9h.02c.56.28,1.1.57,1.64.87,9.12-10.43,15.86-20.36,15.86-20.36,0,0-6.33,10.21-12.15,22.78.52.39,1.03.8,1.52,1.22l19.07-23.23.65.59-15.06,18.97,16.5-17.66.68.62-17.85,19.81,19.17-18.53.64.66-17.08,17.1,18.43-15.71.61.63-22.56,19.88h.01c.39.45.77.91,1.15,1.37,12.39-6.26,22.4-12.97,22.4-12.97,0,0-9.73,7.12-19.85,16.62.28.46.73,1.25.98,1.73l26.39-14.37.38.79-21.07,11.95,21.91-10.2.4.83-20.41,9.95.39.14,20.77-8.4.35.85-19.3,8.21.36.15,12.86-4.29,1.94-1.35.64.49,4.23-1.41.33.81-3.66,1.29,5.29,4.04,1.7.95C120.79,21.14,95.21,0,64.68,0S7.68,21.89,1.44,51.09c.08-.04.16-.08.24-.11l.78-.35.48-.22,8.92-5Z"/>
  </g>
  <path class="cls-2" d="M1.07,76.45s9.54-1.91,17.51-1.91c20.99,0,50.01,11.82,71.08,11.82,15.45,0,30.52-4.24,38.74-10.42.64-3.66.98-7.42.98-11.26,0-5.2-.62-10.26-1.78-15.1l-8.78-4.9-10.3,7.23-6.93-2.7c-2.35,1.19-16.82,10.87-16.82,10.87l-5.56-4.02-5.96-1.18-7.95-5.79-9.12,6.26s-10.17,5.91-10.52,5.91-12.27-9.45-12.27-9.45l-5.49-5.79c-.94.59-4.67,2.31-4.67,2.31l-.19.05-3.62-1.12-4.39-2.33-13.34,6.05c-.08.04-.16.08-.24.11-.94,4.38-1.44,8.93-1.44,13.6,0,4.02.37,7.95,1.07,11.76Z"/>
</svg>